<svg width="98" height="98" viewBox="0 0 98 98" fill="none" xmlns="http://www.w3.org/2000/svg">
<path d="M45 4.61914C47.4752 3.19008 50.5248 3.19008 53 4.61914L85.4355 23.3457C87.9105 24.7748 89.4355 27.4155 89.4355 30.2734V67.7266C89.4355 70.5845 87.9105 73.2252 85.4355 74.6543L53 93.3809C50.5248 94.8099 47.4752 94.8099 45 93.3809L12.5645 74.6543C10.0895 73.2252 8.56448 70.5845 8.56445 67.7266V30.2734C8.56448 27.4155 10.0895 24.7748 12.5645 23.3457L45 4.61914Z" stroke="#84A12D" stroke-width="4"/>
<path d="M49.0637 56.9605V86.5647" stroke="black" stroke-width="4" stroke-linecap="round"/>
<path d="M64.6173 58.8001C64.6173 58.8001 50.1303 56.2436 49.2782 76.6957" stroke="black" stroke-width="4" stroke-linecap="round"/>
<path d="M49.2113 76.5352C49.2113 76.5352 63.6786 79.2011 64.6851 58.7559" stroke="black" stroke-width="4" stroke-linecap="round"/>
<path d="M34.0069 58.9599C34.0069 58.9599 48.4939 56.4033 49.3461 76.8555" stroke="black" stroke-width="4" stroke-linecap="round"/>
<path d="M49.4129 76.6951C49.4129 76.6951 34.9457 79.3609 33.9391 58.9157" stroke="black" stroke-width="4" stroke-linecap="round"/>
<path d="M49.0581 49.6052C49.4721 49.6054 49.808 49.9412 49.8081 50.3552C49.8081 50.7693 49.4722 51.105 49.0581 51.1052H49.0288C48.6148 51.105 48.2788 50.7693 48.2788 50.3552C48.2789 49.9412 48.6148 49.6054 49.0288 49.6052H49.0581ZM41.3179 42.2556C45.9433 39.2604 52.1437 39.2619 56.7945 42.2546C57.1424 42.4788 57.2429 42.9425 57.0191 43.2907C56.7949 43.6388 56.3302 43.7404 55.982 43.5163C51.8239 40.8407 46.2601 40.8413 42.1324 43.5144C41.7847 43.7391 41.3203 43.6402 41.0953 43.2927C40.8705 42.9452 40.9706 42.4807 41.3179 42.2556ZM33.8287 35.4421C42.6834 28.7047 55.5431 28.706 64.4244 35.4421C64.7542 35.6923 64.8189 36.1629 64.5689 36.4929C64.3186 36.8226 63.8481 36.8874 63.5181 36.6374C55.1719 30.3071 43.0541 30.3079 34.7369 36.6364C34.4073 36.8871 33.9369 36.8232 33.6861 36.4939C33.4353 36.1642 33.499 35.6929 33.8287 35.4421ZM26.2583 28.6335C39.2723 18.1809 58.7864 18.1808 71.8003 28.6335C72.1229 28.8929 72.1745 29.3644 71.9156 29.6872C71.6562 30.0101 71.1838 30.0617 70.8609 29.8025C58.3957 19.7906 39.663 19.7907 27.1978 29.8025C26.8749 30.0618 26.4025 30.01 26.1431 29.6872C25.8841 29.3643 25.9357 28.8928 26.2583 28.6335Z" fill="black"/>
<path d="M49.0581 49.6052L49.059 48.1052H49.0581V49.6052ZM49.8081 50.3552H51.3081V50.3548L49.8081 50.3552ZM49.0581 51.1052V52.6052H49.059L49.0581 51.1052ZM49.0288 51.1052L49.0282 52.6052H49.0288V51.1052ZM48.2788 50.3552L46.7788 50.3548V50.3552H48.2788ZM49.0288 49.6052V48.1052H49.0282L49.0288 49.6052ZM41.3179 42.2556L40.5026 40.9965L40.5018 40.997L41.3179 42.2556ZM56.7945 42.2546L57.6068 40.9936L57.6062 40.9932L56.7945 42.2546ZM57.0191 43.2907L58.2801 44.1031L58.2809 44.1018L57.0191 43.2907ZM55.982 43.5163L56.7937 42.2549L56.7937 42.2549L55.982 43.5163ZM42.1324 43.5144L42.9467 44.7741L42.9477 44.7734L42.1324 43.5144ZM41.0953 43.2927L39.8358 44.1074L39.8362 44.108L41.0953 43.2927ZM33.8287 35.4421L32.9204 34.2484L32.9203 34.2484L33.8287 35.4421ZM64.4244 35.4421L65.3309 34.2471L65.3308 34.247L64.4244 35.4421ZM64.5689 36.4929L65.7637 37.3997L65.7645 37.3986L64.5689 36.4929ZM63.5181 36.6374L62.6116 37.8325L62.6122 37.833L63.5181 36.6374ZM34.7369 36.6364L35.6449 37.8304L35.6452 37.8302L34.7369 36.6364ZM33.6861 36.4939L32.4923 37.4021L32.4928 37.4028L33.6861 36.4939ZM26.2583 28.6335L25.319 27.464L25.3186 27.4643L26.2583 28.6335ZM71.8003 28.6335L72.7403 27.4646L72.7397 27.464L71.8003 28.6335ZM71.9156 29.6872L73.085 30.6265L73.0856 30.6258L71.9156 29.6872ZM70.8609 29.8025L69.9216 30.9719L69.9219 30.9722L70.8609 29.8025ZM27.1978 29.8025L26.2585 28.633L26.2585 28.633L27.1978 29.8025ZM26.1431 29.6872L24.9731 30.6259L24.9738 30.6268L26.1431 29.6872ZM49.0581 49.6052L49.0573 51.1052C48.6439 51.105 48.3082 50.7702 48.3081 50.3556L49.8081 50.3552L51.3081 50.3548C51.3078 49.1122 50.3003 48.1059 49.059 48.1052L49.0581 49.6052ZM49.8081 50.3552H48.3081C48.3081 49.94 48.6444 49.6054 49.0573 49.6052L49.0581 51.1052L49.059 52.6052C50.3 52.6045 51.3081 51.5985 51.3081 50.3552H49.8081ZM49.0581 51.1052V49.6052H49.0288V51.1052V52.6052H49.0581V51.1052ZM49.0288 51.1052L49.0295 49.6052C49.4427 49.6054 49.7788 49.9402 49.7788 50.3552H48.2788H46.7788C46.7788 51.5984 47.7869 52.6047 49.0282 52.6052L49.0288 51.1052ZM48.2788 50.3552L49.7788 50.3556C49.7787 50.7699 49.4431 51.105 49.0295 51.1052L49.0288 49.6052L49.0282 48.1052C47.7866 48.1057 46.7792 49.1124 46.7788 50.3548L48.2788 50.3552ZM49.0288 49.6052V51.1052H49.0581V49.6052V48.1052H49.0288V49.6052ZM41.3179 42.2556L42.1332 43.5146C46.2609 40.8417 51.8248 40.8404 55.9828 43.516L56.7945 42.2546L57.6062 40.9932C52.4626 37.6834 45.6256 37.679 40.5026 40.9965L41.3179 42.2556ZM56.7945 42.2546L55.9822 43.5156C55.6337 43.2912 55.5337 42.8274 55.7573 42.4796L57.0191 43.2907L58.2809 44.1018C58.9521 43.0577 58.6512 41.6664 57.6068 40.9936L56.7945 42.2546ZM57.0191 43.2907L55.7581 42.4784C55.9806 42.133 56.4427 42.0291 56.7937 42.2549L55.982 43.5163L55.1703 44.7777C56.2176 45.4517 57.6091 45.1445 58.2801 44.1031L57.0191 43.2907ZM55.982 43.5163L56.7937 42.2549C52.143 39.2623 45.9425 39.2598 41.317 42.2553L42.1324 43.5144L42.9477 44.7734C46.5776 42.4227 51.5049 42.4191 55.1703 44.7777L55.982 43.5163ZM42.1324 43.5144L41.318 42.2547C41.6639 42.0311 42.1281 42.128 42.3543 42.4773L41.0953 43.2927L39.8362 44.108C40.5125 45.1523 41.9056 45.4471 42.9467 44.7741L42.1324 43.5144ZM41.0953 43.2927L42.3547 42.478C42.5812 42.8281 42.4787 43.2907 42.134 43.5142L41.3179 42.2556L40.5018 40.997C39.4626 41.6708 39.1597 43.0622 39.8358 44.1074L41.0953 43.2927ZM33.8287 35.4421L34.7369 36.6358C43.0541 30.3075 55.1717 30.3069 63.5179 36.6372L64.4244 35.4421L65.3308 34.247C55.9146 27.1051 42.3127 27.1019 32.9204 34.2484L33.8287 35.4421ZM64.4244 35.4421L63.5178 36.6371C63.1877 36.3867 63.1234 35.9169 63.3732 35.5871L64.5689 36.4929L65.7645 37.3986C66.5143 36.4089 66.3207 34.9979 65.3309 34.2471L64.4244 35.4421ZM64.5689 36.4929L63.374 35.5861C63.6241 35.2566 64.0937 35.1916 64.424 35.4419L63.5181 36.6374L62.6122 37.833C63.6024 38.5833 65.0131 38.3887 65.7637 37.3997L64.5689 36.4929ZM63.5181 36.6374L64.4246 35.4423C55.5433 28.7061 42.6833 28.7052 33.8286 35.4427L34.7369 36.6364L35.6452 37.8302C43.4248 31.9107 54.8005 31.9081 62.6116 37.8325L63.5181 36.6374ZM34.7369 36.6364L33.8288 35.4425C34.1585 35.1918 34.6286 35.2558 34.8793 35.585L33.6861 36.4939L32.4928 37.4028C33.2452 38.3906 34.6562 38.5824 35.6449 37.8304L34.7369 36.6364ZM33.6861 36.4939L34.8799 35.5856C35.1301 35.9145 35.0673 36.3844 34.737 36.6358L33.8287 35.4421L32.9203 34.2484C31.9307 35.0014 31.7405 36.4139 32.4923 37.4021L33.6861 36.4939ZM26.2583 28.6335L27.1977 29.803C39.6629 19.791 58.3958 19.791 70.861 29.803L71.8003 28.6335L72.7397 27.464C59.177 16.5706 38.8816 16.5707 25.319 27.464L26.2583 28.6335ZM71.8003 28.6335L70.8604 29.8025C70.5384 29.5436 70.4861 29.072 70.7455 28.7486L71.9156 29.6872L73.0856 30.6258C73.863 29.6568 73.7073 28.2421 72.7403 27.4646L71.8003 28.6335ZM71.9156 29.6872L70.7461 28.7479C71.0055 28.425 71.477 28.3735 71.7999 28.6327L70.8609 29.8025L69.9219 30.9722C70.8906 31.7499 72.307 31.5953 73.085 30.6265L71.9156 29.6872ZM70.8609 29.8025L71.8002 28.633C58.7863 18.1805 39.2724 18.1805 26.2585 28.633L27.1978 29.8025L28.1371 30.9719C40.0536 21.4008 58.005 21.4008 69.9216 30.9719L70.8609 29.8025ZM27.1978 29.8025L26.2585 28.633C26.5821 28.3731 27.0535 28.4255 27.3124 28.7476L26.1431 29.6872L24.9738 30.6268C25.7515 31.5946 27.1677 31.7505 28.1371 30.9719L27.1978 29.8025ZM26.1431 29.6872L27.3131 28.7485C27.5724 29.0717 27.5204 29.5436 27.198 29.8027L26.2583 28.6335L25.3186 27.4643C24.351 28.2421 24.1958 29.657 24.9731 30.6259L26.1431 29.6872Z" fill="black"/>
</svg>
